<?xml version="1.0" encoding="UTF-8" standalone="no"?>
<svg
   xmlns:dc="http://purl.org/dc/elements/1.1/"
   xmlns:cc="http://creativecommons.org/ns#"
   xmlns:rdf="http://www.w3.org/1999/02/22-rdf-syntax-ns#"
   xmlns:svg="http://www.w3.org/2000/svg"
   xmlns="http://www.w3.org/2000/svg"
   viewBox="0 0 666.66669 565.98669"
   height="565.98669"
   width="666.66669"
   xml:space="preserve"
   id="svg2"
   version="1.1"><metadata
     id="metadata8"><rdf:RDF><cc:Work
         rdf:about=""><dc:format>image/svg+xml</dc:format><dc:type
           rdf:resource="http://purl.org/dc/dcmitype/StillImage" /></cc:Work></rdf:RDF></metadata><defs
     id="defs6" /><g
     transform="matrix(1.3333333,0,0,-1.3333333,0,565.98667)"
     id="g10"><g
       transform="scale(0.1)"
       id="g12"><path
         id="path14"
         style="fill:#cadef4;fill-opacity:1;fill-rule:nonzero;stroke:none"
         d="M 5000,967.941 H 0 v 2.5 h 5000 v -2.5" /><path
         id="path16"
         style="fill:#cadef4;fill-opacity:1;fill-rule:nonzero;stroke:none"
         d="m 516.461,850.539 h 577.729 v -2.5 H 516.461 v 2.5" /><path
         id="path18"
         style="fill:#cadef4;fill-opacity:1;fill-rule:nonzero;stroke:none"
         d="m 2093.44,904.852 h 263.23 v -2.5 h -263.23 v 2.5" /><path
         id="path20"
         style="fill:#cadef4;fill-opacity:1;fill-rule:nonzero;stroke:none"
         d="m 2965.56,903.602 h -512.78 v 2.5 h 512.78 v -2.5" /><path
         id="path22"
         style="fill:#cadef4;fill-opacity:1;fill-rule:nonzero;stroke:none"
         d="m 3816.76,876.102 h 124.9 v -2.5 h -124.9 v 2.5" /><path
         id="path24"
         style="fill:#cadef4;fill-opacity:1;fill-rule:nonzero;stroke:none"
         d="m 2887.31,876.102 h 498.25 v -2.5 h -498.25 v 2.5" /><path
         id="path26"
         style="fill:#cadef4;fill-opacity:1;fill-rule:nonzero;stroke:none"
         d="M 1191.01,850.539 H 1290 v -2.5 h -98.99 v 2.5" /><path
         id="path28"
         style="fill:#cadef4;fill-opacity:1;fill-rule:nonzero;stroke:none"
         d="m 4023.33,876.102 h 432.54 v -2.5 h -432.54 v 2.5" /><path
         id="path30"
         style="fill:#cadef4;fill-opacity:1;fill-rule:nonzero;stroke:none"
         d="m 439.148,4242.4 c -30.093,0 -54.578,-24.48 -54.578,-54.58 V 1473.51 c 0,-30.1 24.485,-54.58 54.578,-54.58 H 2370.14 c 30.08,0 54.57,24.48 54.57,54.58 v 2714.31 c 0,30.1 -24.49,54.58 -54.57,54.58 z M 2370.14,1416.43 H 439.148 c -31.472,0 -57.078,25.6 -57.078,57.08 v 2714.31 c 0,31.47 25.606,57.08 57.078,57.08 H 2370.14 c 31.46,0 57.07,-25.61 57.07,-57.08 V 1473.51 c 0,-31.48 -25.61,-57.08 -57.07,-57.08" /><path
         id="path32"
         style="fill:#cadef4;fill-opacity:1;fill-rule:nonzero;stroke:none"
         d="m 2602.12,4242.4 c -30.09,0 -54.57,-24.48 -54.57,-54.58 V 1473.51 c 0,-30.1 24.48,-54.58 54.57,-54.58 h 1930.99 c 30.09,0 54.58,24.48 54.58,54.58 v 2714.31 c 0,30.1 -24.49,54.58 -54.58,54.58 z M 4533.11,1416.43 H 2602.12 c -31.47,0 -57.07,25.6 -57.07,57.08 v 2714.31 c 0,31.47 25.6,57.08 57.07,57.08 h 1930.99 c 31.47,0 57.08,-25.61 57.08,-57.08 V 1473.51 c 0,-31.48 -25.61,-57.08 -57.08,-57.08" /><path
         id="path34"
         style="fill:#f1f7fd;fill-opacity:1;fill-rule:nonzero;stroke:none"
         d="m 766.156,3426.28 c -43.601,94.21 -8.992,161.28 97.582,161.28 66.832,0 149.712,-26.4 230.412,-69.38 9.11,24.5 34.79,39.19 76.1,39.19 72.7,0 172.91,-45.38 251.53,-109.39 19.02,14.27 46.54,23.01 81.92,24.41 69.57,2.9 153.84,-23.18 227.11,-65.58 6.34,7.1 17.22,11.55 32.24,12.21 40.1,1.65 94.37,-24.66 121.33,-58.73 1.68,-2.15 3.17,-4.22 4.66,-6.27 h -83.28 -66.25 -230.17 -113.26 -88.07 -135.65 -24.62 -336.494 -66.258 c -3.422,29.69 3.7,54.53 21.168,72.26" /><path
         id="path36"
         style="fill:#f1f7fd;fill-opacity:1;fill-rule:nonzero;stroke:none"
         d="m 2063.21,3874.25 c 3.48,0.37 7.02,0.56 10.61,0.56 -3.3,36.79 15.77,60.28 56.48,60.28 29.38,0 65.43,-12.27 102.17,-33.02 -10.51,71.4 23.16,117.82 99.39,117.82 61.49,0 139.35,-30.19 216.25,-79.43 6.73,28.01 29.39,44.81 67.46,44.81 66.87,0 161.9,-51.88 238.09,-125.08 0,0 0.03,-0.1 0.1,0 16.46,16.32 41.2,26.41 73.71,28.01 63.68,3.31 142.74,-26.5 212.85,-75.08 5.33,8.2 15.05,13.3 28.94,13.96 34.82,1.8 82.81,-25 110.68,-60.84 h -81.24 -55.07 -211.78 -99.19 -88.32 -125.44 -237.02 -92.38 -32.87 -131.49 -117.99 c -29.87,54.33 -6.07,101.87 56.06,108.01" /><path
         id="path38"
         style="fill:#f1f7fd;fill-opacity:1;fill-rule:nonzero;stroke:none"
         d="m 3769.82,4030.37 c -27.97,60.45 -5.77,103.49 62.62,103.49 42.89,0 96.07,-16.94 147.85,-44.52 5.85,15.72 22.33,25.14 48.83,25.14 46.65,0 110.96,-29.11 161.4,-70.19 12.2,9.16 29.87,14.77 52.57,15.67 44.64,1.85 98.72,-14.88 145.73,-42.09 4.07,4.56 11.05,7.42 20.69,7.84 25.72,1.06 60.55,-15.83 77.85,-37.69 1.08,-1.38 2.03,-2.7 2.99,-4.02 h -53.44 -42.51 -147.69 -72.68 -56.51 -87.04 -15.8 -215.92 -63.67 c -23.87,21.42 2.51,45.29 34.73,46.37" /><path
         id="path40"
         style="fill:#deebf8;fill-opacity:1;fill-rule:nonzero;stroke:none"
         d="M 1232.05,2059.22 H 891.469 V 970.441 H 1232.05 V 2059.22" /><path
         id="path42"
         style="fill:#f1f7fd;fill-opacity:1;fill-rule:nonzero;stroke:none"
         d="m 1120.75,2438.15 h 558.54 V 970.441 H 1120.75 V 2438.15" /><path
         id="path44"
         style="fill:#deebf8;fill-opacity:1;fill-rule:nonzero;stroke:none"
         d="M 1969.16,2438.15 H 1679.29 V 970.441 h 289.87 V 2438.15" /><path
         id="path46"
         style="fill:#f1f7fd;fill-opacity:1;fill-rule:nonzero;stroke:none"
         d="m 1195.9,2438.15 h 483.39 v 145.88 H 1195.9 v -145.88" /><path
         id="path48"
         style="fill:#deebf8;fill-opacity:1;fill-rule:nonzero;stroke:none"
         d="m 1195.9,2438.15 h 483.39 v 32.76 H 1195.9 v -32.76" /><path
         id="path50"
         style="fill:#deebf8;fill-opacity:1;fill-rule:nonzero;stroke:none"
         d="m 1894,2438.15 h -214.71 v 145.88 H 1894 v -145.88" /><path
         id="path52"
         style="fill:#f1f7fd;fill-opacity:1;fill-rule:nonzero;stroke:none"
         d="m 1271.05,2584.03 h 408.24 v 145.88 h -408.24 v -145.88" /><path
         id="path54"
         style="fill:#deebf8;fill-opacity:1;fill-rule:nonzero;stroke:none"
         d="m 1271.05,2584.03 h 408.24 v 32.75 h -408.24 v -32.75" /><path
         id="path56"
         style="fill:#deebf8;fill-opacity:1;fill-rule:nonzero;stroke:none"
         d="m 1818.85,2584.03 h -139.56 v 145.88 h 139.56 v -145.88" /><path
         id="path58"
         style="fill:#deebf8;fill-opacity:1;fill-rule:nonzero;stroke:none"
         d="m 1558.51,2729.91 h -27.11 v 203.87 h 27.11 v -203.87" /><path
         id="path60"
         style="fill:#f1f7fd;fill-opacity:1;fill-rule:nonzero;stroke:none"
         d="M 1876.63,2182.95 H 2284.5 V 970.441 H 1876.63 V 2182.95" /><path
         id="path62"
         style="fill:#deebf8;fill-opacity:1;fill-rule:nonzero;stroke:none"
         d="M 2496.18,2182.95 H 2284.5 V 970.441 h 211.68 V 2182.95" /><path
         id="path64"
         style="fill:#f1f7fd;fill-opacity:1;fill-rule:nonzero;stroke:none"
         d="m 2390.34,1836.51 309.31,-265.13 V 970.441 h -309.31 v 866.069" /><path
         id="path66"
         style="fill:#deebf8;fill-opacity:1;fill-rule:nonzero;stroke:none"
         d="M 2860.18,1571.38 H 2699.65 V 970.441 h 160.53 v 600.939" /><path
         id="path68"
         style="fill:#deebf8;fill-opacity:1;fill-rule:nonzero;stroke:none"
         d="m 2860.18,1571.38 h -160.53 l -309.31,265.13 h 160.53 l 309.31,-265.13" /><path
         id="path70"
         style="fill:#deebf8;fill-opacity:1;fill-rule:nonzero;stroke:none"
         d="m 4309.75,970.441 c 0,0 7.33,72.159 87.05,109.309 -32.68,-52.31 -25.56,-109.309 -25.56,-109.309 h -61.49" /><path
         id="path72"
         style="fill:#deebf8;fill-opacity:1;fill-rule:nonzero;stroke:none"
         d="m 1425.26,970.441 c 0,0 -7.33,72.159 -87.05,109.309 32.68,-52.31 25.56,-109.309 25.56,-109.309 h 61.49" /><path
         id="path74"
         style="fill:#deebf8;fill-opacity:1;fill-rule:nonzero;stroke:none"
         d="m 711.113,970.441 c 0,0 -4.922,128.009 -58.433,165.159 21.937,-52.32 17.156,-165.159 17.156,-165.159 h 41.277" /><path
         id="path76"
         style="fill:#deebf8;fill-opacity:1;fill-rule:nonzero;stroke:none"
         d="m 691.016,970.441 c 0,0 4.918,73.499 58.425,94.819 -21.937,-30.03 -17.152,-94.819 -17.152,-94.819 h -41.273" /><path
         id="path78"
         style="fill:#deebf8;fill-opacity:1;fill-rule:nonzero;stroke:none"
         d="m 1471.06,970.441 c 0,0 -5.33,121.179 -102.38,165.159 43.38,-62.17 40.89,-165.159 40.89,-165.159 h 61.49" /><path
         id="path80"
         style="fill:#cadef4;fill-opacity:1;fill-rule:nonzero;stroke:none"
         d="m 3627.78,1154.06 h 225.17 v 225.17 h -225.17 z m 235.17,-20 h -245.17 c -5.52,0 -10,4.48 -10,10 v 245.17 c 0,5.53 4.48,10 10,10 h 245.17 c 5.53,0 10,-4.47 10,-10 v -245.17 c 0,-5.52 -4.47,-10 -10,-10" /><path
         id="path82"
         style="fill:#cadef4;fill-opacity:1;fill-rule:nonzero;stroke:none"
         d="m 3627.78,1399.23 h 225.17 v 225.17 h -225.17 z m 235.17,-20 h -245.17 c -5.52,0 -10,4.47 -10,10 v 245.17 c 0,5.52 4.48,10 10,10 h 245.17 c 5.53,0 10,-4.48 10,-10 v -245.17 c 0,-5.53 -4.47,-10 -10,-10" /><path
         id="path84"
         style="fill:#cadef4;fill-opacity:1;fill-rule:nonzero;stroke:none"
         d="m 3862.95,1134.06 c -2.56,0 -5.12,0.98 -7.07,2.93 l -245.17,245.17 c -3.9,3.91 -3.9,10.23 0,14.14 3.91,3.91 10.24,3.91 14.14,0 l 245.17,-245.16 c 3.91,-3.91 3.91,-10.24 0,-14.15 -1.95,-1.95 -4.51,-2.93 -7.07,-2.93" /><path
         id="path86"
         style="fill:#cadef4;fill-opacity:1;fill-rule:nonzero;stroke:none"
         d="m 3862.95,1379.23 c -2.56,0 -5.12,0.98 -7.07,2.93 l -245.17,245.17 c -3.9,3.9 -3.9,10.23 0,14.14 3.91,3.9 10.24,3.9 14.14,0 l 245.17,-245.17 c 3.91,-3.91 3.91,-10.23 0,-14.14 -1.95,-1.95 -4.51,-2.93 -7.07,-2.93" /><path
         id="path88"
         style="fill:#cadef4;fill-opacity:1;fill-rule:nonzero;stroke:none"
         d="m 3627.78,1644.4 h 225.17 v 225.15 h -225.17 z m 235.17,-20 h -245.17 c -5.52,0 -10,4.47 -10,10 v 245.15 c 0,5.53 4.48,10 10,10 h 245.17 c 5.53,0 10,-4.47 10,-10 V 1634.4 c 0,-5.53 -4.47,-10 -10,-10" /><path
         id="path90"
         style="fill:#cadef4;fill-opacity:1;fill-rule:nonzero;stroke:none"
         d="m 3627.78,1889.55 h 225.17 v 225.17 h -225.17 z m 235.17,-20 h -245.17 c -5.52,0 -10,4.48 -10,10 v 245.17 c 0,5.53 4.48,10 10,10 h 245.17 c 5.53,0 10,-4.47 10,-10 v -245.17 c 0,-5.52 -4.47,-10 -10,-10" /><path
         id="path92"
         style="fill:#cadef4;fill-opacity:1;fill-rule:nonzero;stroke:none"
         d="m 3862.95,1624.4 c -2.56,0 -5.12,0.97 -7.07,2.93 l -245.17,245.15 c -3.9,3.91 -3.9,10.24 0,14.14 3.91,3.91 10.24,3.91 14.14,0 l 245.17,-245.15 c 3.91,-3.91 3.91,-10.24 0,-14.14 -1.95,-1.96 -4.51,-2.93 -7.07,-2.93" /><path
         id="path94"
         style="fill:#cadef4;fill-opacity:1;fill-rule:nonzero;stroke:none"
         d="m 3862.95,1869.55 c -2.56,0 -5.12,0.98 -7.07,2.93 l -245.17,245.17 c -3.9,3.9 -3.9,10.23 0,14.14 3.91,3.91 10.24,3.91 14.14,0 l 245.17,-245.17 c 3.91,-3.9 3.91,-10.23 0,-14.14 -1.95,-1.95 -4.51,-2.93 -7.07,-2.93" /><path
         id="path96"
         style="fill:#cadef4;fill-opacity:1;fill-rule:nonzero;stroke:none"
         d="m 3627.78,2134.72 h 225.17 v 225.16 h -225.17 z m 235.17,-20 h -245.17 c -5.52,0 -10,4.47 -10,10 v 245.16 c 0,5.52 4.48,10 10,10 h 245.17 c 5.53,0 10,-4.48 10,-10 v -245.16 c 0,-5.53 -4.47,-10 -10,-10" /><path
         id="path98"
         style="fill:#cadef4;fill-opacity:1;fill-rule:nonzero;stroke:none"
         d="m 3627.78,2379.88 h 225.17 v 225.17 h -225.17 z m 235.17,-20 h -245.17 c -5.52,0 -10,4.48 -10,10 v 245.17 c 0,5.52 4.48,10 10,10 h 245.17 c 5.53,0 10,-4.48 10,-10 v -245.17 c 0,-5.52 -4.47,-10 -10,-10" /><path
         id="path100"
         style="fill:#cadef4;fill-opacity:1;fill-rule:nonzero;stroke:none"
         d="m 3862.95,2114.72 c -2.56,0 -5.12,0.98 -7.07,2.93 l -245.17,245.16 c -3.9,3.91 -3.9,10.23 0,14.14 3.91,3.91 10.24,3.91 14.14,0 l 245.17,-245.16 c 3.91,-3.91 3.91,-10.24 0,-14.14 -1.95,-1.95 -4.51,-2.93 -7.07,-2.93" /><path
         id="path102"
         style="fill:#cadef4;fill-opacity:1;fill-rule:nonzero;stroke:none"
         d="m 3382.63,3198.9 h 225.15 v 225.17 h -225.15 z m 235.15,-20 h -245.15 c -5.53,0 -10,4.48 -10,10 v 245.17 c 0,5.52 4.47,10 10,10 h 245.15 c 5.53,0 10,-4.48 10,-10 V 3188.9 c 0,-5.52 -4.47,-10 -10,-10" /><path
         id="path104"
         style="fill:#cadef4;fill-opacity:1;fill-rule:nonzero;stroke:none"
         d="m 3862.95,3178.9 h -245.17 c -5.52,0 -10,4.48 -10,10 0,5.53 4.48,10 10,10 h 235.17 v 480.33 c 0,5.52 4.47,10 10,10 5.53,0 10,-4.48 10,-10 V 3188.9 c 0,-5.52 -4.47,-10 -10,-10" /><path
         id="path106"
         style="fill:#cadef4;fill-opacity:1;fill-rule:nonzero;stroke:none"
         d="m 3617.77,3178.9 c -1.5,0 -3.02,0.34 -4.46,1.06 -4.94,2.47 -6.94,8.47 -4.47,13.42 L 3854,3683.7 c 2.48,4.94 8.47,6.94 13.42,4.47 4.94,-2.47 6.95,-8.47 4.47,-13.42 l -245.16,-490.32 c -1.76,-3.5 -5.28,-5.53 -8.96,-5.53" /><path
         id="path108"
         style="fill:#cadef4;fill-opacity:1;fill-rule:nonzero;stroke:none"
         d="m 3137.46,3198.9 h 225.17 v 225.17 h -225.17 z m 235.17,-20 h -245.17 c -5.53,0 -10,4.48 -10,10 v 245.17 c 0,5.52 4.47,10 10,10 h 245.17 c 5.52,0 10,-4.48 10,-10 V 3188.9 c 0,-5.52 -4.48,-10 -10,-10" /><path
         id="path110"
         style="fill:#cadef4;fill-opacity:1;fill-rule:nonzero;stroke:none"
         d="m 3372.63,3178.9 c -2.56,0 -5.12,0.98 -7.07,2.93 -3.91,3.91 -3.91,10.24 0,14.14 l 245.15,245.17 c 3.91,3.9 10.24,3.9 14.14,0 3.91,-3.91 3.91,-10.24 0,-14.15 L 3379.7,3181.83 c -1.96,-1.95 -4.51,-2.93 -7.07,-2.93" /><path
         id="path112"
         style="fill:#cadef4;fill-opacity:1;fill-rule:nonzero;stroke:none"
         d="m 3872.95,3198.9 h 225.17 v 225.17 h -225.17 z m 235.17,-20 h -245.17 c -5.53,0 -10,4.48 -10,10 v 245.17 c 0,5.52 4.47,10 10,10 h 245.17 c 5.52,0 10,-4.48 10,-10 V 3188.9 c 0,-5.52 -4.48,-10 -10,-10" /><path
         id="path114"
         style="fill:#cadef4;fill-opacity:1;fill-rule:nonzero;stroke:none"
         d="m 3862.95,3178.9 c -2.56,0 -5.12,0.98 -7.07,2.93 -3.91,3.91 -3.91,10.24 0,14.14 l 245.16,245.17 c 3.91,3.9 10.24,3.9 14.15,0 3.9,-3.91 3.9,-10.24 0,-14.15 l -245.17,-245.16 c -1.95,-1.95 -4.51,-2.93 -7.07,-2.93" /><path
         id="path116"
         style="fill:#cadef4;fill-opacity:1;fill-rule:nonzero;stroke:none"
         d="m 2391.97,3178.9 c -2.56,0 -5.11,0.98 -7.07,2.93 -3.9,3.91 -3.9,10.24 0,14.14 l 245.17,245.17 c 1.39,1.39 3.17,2.34 5.11,2.73 l 1225.81,245.16 c 3.29,0.65 6.67,-0.37 9.03,-2.73 l 490.32,-490.33 c 3.91,-3.9 3.91,-10.23 0,-14.14 -3.9,-3.9 -10.23,-3.9 -14.14,0 l -486.54,486.54 -1217.59,-243.52 -243.03,-243.02 c -1.95,-1.95 -4.51,-2.93 -7.07,-2.93" /><path
         id="path118"
         style="fill:#cadef4;fill-opacity:1;fill-rule:nonzero;stroke:none"
         d="m 3127.46,3178.9 c -2.56,0 -5.12,0.98 -7.07,2.93 -3.91,3.91 -3.91,10.24 0,14.14 l 245.17,245.17 c 3.9,3.9 10.23,3.9 14.14,0 3.9,-3.91 3.9,-10.24 0,-14.15 l -245.17,-245.16 c -1.95,-1.95 -4.51,-2.93 -7.07,-2.93" /><path
         id="path120"
         style="fill:#cadef4;fill-opacity:1;fill-rule:nonzero;stroke:none"
         d="m 2892.29,3198.9 h 225.17 v 225.17 h -225.17 z m 235.17,-20 h -245.17 c -5.52,0 -10,4.48 -10,10 v 245.17 c 0,5.52 4.48,10 10,10 h 245.17 c 5.53,0 10,-4.48 10,-10 V 3188.9 c 0,-5.52 -4.47,-10 -10,-10" /><path
         id="path122"
         style="fill:#cadef4;fill-opacity:1;fill-rule:nonzero;stroke:none"
         d="m 2647.14,3198.9 h 225.15 v 225.17 h -225.15 z m 235.15,-20 h -245.15 c -5.53,0 -10,4.48 -10,10 v 245.17 c 0,5.52 4.47,10 10,10 h 245.15 c 5.53,0 10,-4.48 10,-10 V 3188.9 c 0,-5.52 -4.47,-10 -10,-10" /><path
         id="path124"
         style="fill:#cadef4;fill-opacity:1;fill-rule:nonzero;stroke:none"
         d="m 2882.29,3178.9 c -2.55,0 -5.11,0.98 -7.07,2.93 -3.9,3.91 -3.9,10.24 0,14.14 l 245.17,245.17 c 3.91,3.9 10.24,3.9 14.14,0 3.91,-3.91 3.91,-10.24 0,-14.15 l -245.16,-245.16 c -1.96,-1.95 -4.52,-2.93 -7.08,-2.93" /><path
         id="path126"
         style="fill:#cadef4;fill-opacity:1;fill-rule:nonzero;stroke:none"
         d="m 2637.14,3178.9 c -2.56,0 -5.12,0.98 -7.07,2.93 -3.91,3.91 -3.91,10.24 0,14.14 l 245.15,245.17 c 3.91,3.9 10.24,3.9 14.15,0 3.9,-3.91 3.9,-10.24 0,-14.15 l -245.16,-245.16 c -1.95,-1.95 -4.51,-2.93 -7.07,-2.93" /><path
         id="path128"
         style="fill:#cadef4;fill-opacity:1;fill-rule:nonzero;stroke:none"
         d="m 2637.14,3178.9 h -245.17 c -5.52,0 -10,4.48 -10,10 0,5.53 4.48,10 10,10 h 235.17 v 235.17 c 0,5.52 4.47,10 10,10 5.53,0 10,-4.48 10,-10 V 3188.9 c 0,-5.52 -4.47,-10 -10,-10" /><path
         id="path130"
         style="fill:#cadef4;fill-opacity:1;fill-rule:nonzero;stroke:none"
         d="m 3862.95,2359.88 c -2.56,0 -5.12,0.98 -7.07,2.93 l -245.17,245.17 c -3.9,3.9 -3.9,10.23 0,14.14 3.91,3.9 10.24,3.9 14.14,0 l 245.17,-245.17 c 3.91,-3.91 3.91,-10.23 0,-14.14 -1.95,-1.95 -4.51,-2.93 -7.07,-2.93" /><path
         id="path132"
         style="fill:#cadef4;fill-opacity:1;fill-rule:nonzero;stroke:none"
         d="m 3627.78,2625.05 h 225.17 v 225.16 h -225.17 z m 235.17,-20 h -245.17 c -5.52,0 -10,4.47 -10,10 v 245.16 c 0,5.52 4.48,10 10,10 h 245.17 c 5.53,0 10,-4.48 10,-10 v -245.16 c 0,-5.53 -4.47,-10 -10,-10" /><path
         id="path134"
         style="fill:#cadef4;fill-opacity:1;fill-rule:nonzero;stroke:none"
         d="m 3627.78,2870.21 h 225.17 v 225.16 h -225.17 z m 235.17,-20 h -245.17 c -5.52,0 -10,4.47 -10,10 v 245.16 c 0,5.52 4.48,10 10,10 h 245.17 c 5.53,0 10,-4.48 10,-10 v -245.16 c 0,-5.53 -4.47,-10 -10,-10" /><path
         id="path136"
         style="fill:#cadef4;fill-opacity:1;fill-rule:nonzero;stroke:none"
         d="m 3862.95,2605.05 c -2.56,0 -5.12,0.97 -7.07,2.93 l -245.17,245.16 c -3.9,3.9 -3.9,10.23 0,14.14 3.91,3.9 10.24,3.9 14.14,0 l 245.17,-245.16 c 3.91,-3.91 3.91,-10.24 0,-14.14 -1.95,-1.96 -4.51,-2.93 -7.07,-2.93" /><path
         id="path138"
         style="fill:#cadef4;fill-opacity:1;fill-rule:nonzero;stroke:none"
         d="m 3862.95,2850.21 c -2.56,0 -5.12,0.97 -7.07,2.93 l -245.17,245.16 c -3.9,3.9 -3.9,10.23 0,14.14 3.91,3.9 10.24,3.9 14.14,0 l 245.17,-245.16 c 3.91,-3.91 3.91,-10.24 0,-14.14 -1.95,-1.96 -4.51,-2.93 -7.07,-2.93" /><path
         id="path140"
         style="fill:#cadef4;fill-opacity:1;fill-rule:nonzero;stroke:none"
         d="m 4353.27,3188.9 h -1961.3 l 245.17,-83.53 h 1716.13 v 83.53" /><path
         id="path142"
         style="fill:#cadef4;fill-opacity:1;fill-rule:nonzero;stroke:none"
         d="m 2638.8,3115.37 h 1704.47 v 63.53 H 2452.33 Z m 1714.47,-20 H 2637.14 c -1.1,0 -2.19,0.18 -3.22,0.53 l -245.17,83.54 c -4.63,1.58 -7.44,6.27 -6.64,11.1 0.8,4.82 4.97,8.36 9.86,8.36 h 1961.3 c 5.53,0 10,-4.47 10,-10 v -83.53 c 0,-5.52 -4.47,-10 -10,-10" /><path
         id="path144"
         style="fill:#cadef4;fill-opacity:1;fill-rule:nonzero;stroke:none"
         d="m 3617.78,3147.14 h -181.5 v -385.76 h 181.5 v 385.76" /><path
         id="path146"
         style="fill:#f1f7fd;fill-opacity:1;fill-rule:nonzero;stroke:none"
         d="m 3351.84,3147.14 h 84.44 v -385.76 h -84.44 v 385.76" /><path
         id="path148"
         style="fill:#cadef4;fill-opacity:1;fill-rule:nonzero;stroke:none"
         d="M 4002.23,1144.06 H 3644.79 V 970.441 h 357.44 v 173.619" /><path
         id="path150"
         style="fill:#f1f7fd;fill-opacity:1;fill-rule:nonzero;stroke:none"
         d="m 3478.51,1144.06 h 166.28 V 970.441 h -166.28 v 173.619" /><path
         id="path152"
         style="fill:#cadef4;fill-opacity:1;fill-rule:nonzero;stroke:none"
         d="m 4108.12,2758.05 c -5.53,0 -10,4.48 -10,10 v 379.09 c 0,5.52 4.47,10 10,10 5.52,0 10,-4.48 10,-10 v -379.09 c 0,-5.52 -4.48,-10 -10,-10" /><path
         id="path154"
         style="fill:#cadef4;fill-opacity:1;fill-rule:nonzero;stroke:none"
         d="m 4108.12,2758.05 c -7.17,0 -13,-5.83 -13,-12.99 0,-7.17 5.83,-13 13,-13 7.16,0 12.99,5.83 12.99,13 0,7.16 -5.83,12.99 -12.99,12.99 z m 0,-45.99 c -18.2,0 -33,14.8 -33,33 0,18.19 14.8,32.99 33,32.99 18.19,0 32.99,-14.8 32.99,-32.99 0,-18.2 -14.8,-33 -32.99,-33" /><path
         id="path156"
         style="fill:#cadef4;fill-opacity:1;fill-rule:nonzero;stroke:none"
         d="m 2667.95,2559.05 c -5.53,0 -10,4.48 -10,10 v 578.09 c 0,5.52 4.47,10 10,10 5.53,0 10,-4.48 10,-10 v -578.09 c 0,-5.52 -4.47,-10 -10,-10" /><path
         id="path158"
         style="fill:#cadef4;fill-opacity:1;fill-rule:nonzero;stroke:none"
         d="m 2761.82,2499.16 c -4.93,0 -9.02,3.56 -9.85,8.23 -7.32,11.68 -72.45,50.16 -84.37,51.67 -11.23,-1.51 -76.35,-39.99 -83.67,-51.67 -0.83,-4.67 -4.93,-8.23 -9.85,-8.23 -5.53,0 -10,4.48 -10,10 0,22.47 90.75,69.89 103.87,69.89 13.11,0 103.87,-47.42 103.87,-69.89 0,-5.52 -4.48,-10 -10,-10" /><path
         id="path160"
         style="fill:#cadef4;fill-opacity:1;fill-rule:nonzero;stroke:none"
         d="m 2777.13,2015.58 c -60.33,-60.33 -158.08,-60.33 -218.37,-0.05 -60.3,60.29 -60.3,158.05 0.04,218.38 60.29,60.29 158.04,60.29 218.33,0 60.29,-60.29 60.29,-158.04 0,-218.33 z m 92.48,-239.21 146.69,146.68 -31.26,59.7 c 0.01,0 0.01,0.01 0.01,0.01 2.71,5.99 5.2,12.01 7.54,18.13 0,0 0,0.01 0.01,0.01 l 64.28,20.1 v 207.44 l -64.32,20.11 v 0.01 c -2.34,6.11 -4.8,12.16 -7.51,18.15 l 31.25,59.67 -146.69,146.69 -59.67,-31.24 c 0,0 0,0 -0.01,0 -5.98,2.71 -12.04,5.17 -18.15,7.5 l -20.11,64.31 h -207.44 l -20.11,-64.31 c -6.14,-2.3 -12.16,-4.79 -18.14,-7.5 0,0 -0.01,-0.01 -0.02,-0.01 l -59.68,31.25 -146.69,-146.69 31.26,-59.69 c -2.7,-5.97 -5.19,-12.04 -7.51,-18.14 l -64.31,-20.11 V 2021 l 64.3,-20.11 v 0 c 2.33,-6.12 4.79,-12.18 7.5,-18.16 0,0 0,-0.01 0.01,-0.01 l -31.25,-59.67 146.69,-146.68 59.67,31.24 c 5.99,-2.72 12.04,-5.17 18.16,-7.5 l 0.01,-0.01 20.11,-64.3 207.44,-0.01 20.11,64.33 c 6.1,2.32 12.17,4.81 18.13,7.51 l 59.7,-31.26" /><path
         id="path162"
         style="fill:#ecf4fb;fill-opacity:1;fill-rule:nonzero;stroke:none"
         d="m 4438.89,632.039 c 0,-62.539 -868.07,-113.23 -1938.89,-113.23 -1070.82,0 -1938.887,50.691 -1938.887,113.23 0,62.539 868.067,113.242 1938.887,113.242 1070.82,0 1938.89,-50.703 1938.89,-113.242" /><path
         id="path164"
         style="fill:#b0cde5;fill-opacity:1;fill-rule:nonzero;stroke:none"
         d="M 1758.92,3162.98 H 1634.1 c -11.62,0 -22.36,-6.21 -28.18,-16.27 l -62.4,-108.1 c -5.81,-10.07 -5.81,-22.47 0,-32.54 l 62.4,-108.09 c 5.82,-10.07 16.56,-16.27 28.18,-16.27 h 124.82 c 11.62,0 22.36,6.2 28.17,16.27 l 62.41,108.09 c 5.82,10.07 5.82,22.47 0,32.54 l -62.41,108.1 c -5.81,10.06 -16.55,16.27 -28.17,16.27" /><path
         id="path166"
         style="fill:#b0cde5;fill-opacity:1;fill-rule:nonzero;stroke:none"
         d="m 1063.29,3624.47 -7.07,7.07 125.41,125.42 7.07,-7.07 z m -103.329,-103.33 -7.07,7.06 60.419,60.42 7.07,-7.07 -60.419,-60.41" /><path
         id="path168"
         style="fill:#b0cde5;fill-opacity:1;fill-rule:nonzero;stroke:none"
         d="m 2033.33,3022.4 c 0,-186.16 -150.79,-336.95 -336.82,-336.95 -186.03,0 -336.82,150.79 -336.82,336.95 0,186.03 150.79,336.83 336.82,336.83 186.03,0 336.82,-150.8 336.82,-336.83 z m 511.72,-226.35 v 452.59 l -140.31,43.86 c 0,0.02 0,0.03 -0.01,0.04 -5.06,13.42 -10.51,26.56 -16.34,39.6 -0.01,0 -0.01,0.02 -0.02,0.02 l 68.17,130.16 -320.04,320.04 -130.23,-68.2 c -0.01,0 -0.01,0.01 -0.01,0.01 -13.03,5.83 -26.17,11.38 -39.59,16.43 l -43.85,140.27 h -452.6 l -43.85,-140.26 c 0,0 -0.01,0 -0.02,0 -13.42,-5.06 -26.55,-10.61 -39.59,-16.44 l -130.22,68.19 -320.036,-320.04 68.206,-130.23 c -5.933,-13.02 -11.374,-26.14 -16.425,-39.55 -0.004,-0.01 -0.008,-0.03 -0.015,-0.04 l -140.278,-43.86 v -452.59 l 140.313,-43.87 c 5.047,-13.39 10.578,-26.59 16.395,-39.58 l -68.196,-130.24 320.036,-320.03 130.21,68.18 c 0,0 0,0 0.01,0 13.03,-5.84 26.17,-11.39 39.59,-16.45 0.01,0 0.02,0 0.03,-0.01 l 43.84,-140.23 h 452.6 l 43.85,140.24 c 13.42,5.06 26.55,10.61 39.59,16.45 0.01,0 0.01,0 0.02,0.01 l 130.22,-68.19 320.04,320.03 -68.21,130.26 c 5.82,12.99 11.33,26.18 16.38,39.55 l 140.34,43.88" /><path
         id="path170"
         style="fill:#ffffff;fill-opacity:1;fill-rule:nonzero;stroke:none"
         d="m 2328.51,3545.43 c -0.64,0 -1.28,0.25 -1.77,0.73 l -196.33,196.33 -121.98,-63.87 c -0.66,-0.35 -1.48,-0.39 -2.18,-0.06 l -13.28,5.94 c -13.69,6.14 -26.05,11.27 -37.76,15.69 l -13.69,5.15 c -0.72,0.27 -1.28,0.86 -1.51,1.6 l -41.07,131.43 h -404.83 l -35.36,-113.14 c -0.42,-1.32 -1.8,-2.06 -3.14,-1.64 -1.32,0.41 -2.05,1.81 -1.64,3.13 l 35.92,114.89 c 0.32,1.04 1.29,1.76 2.39,1.76 h 408.49 c 1.1,0 2.06,-0.72 2.39,-1.76 l 41.26,-132.02 12.55,-4.73 c 11.81,-4.44 24.26,-9.61 38.04,-15.79 l 12.18,-5.46 122.53,64.16 c 0.98,0.5 2.16,0.32 2.93,-0.45 l 197.62,-197.62 c 0.98,-0.98 0.98,-2.56 0,-3.54 -0.48,-0.48 -1.12,-0.73 -1.76,-0.73 z M 973.313,3454.21 c -0.641,0 -1.282,0.24 -1.77,0.73 -0.977,0.97 -0.977,2.56 0,3.53 l 288.847,288.85 c 0.76,0.77 1.94,0.96 2.93,0.45 l 122.51,-64.16 12.19,5.46 c 11.77,5.28 22.56,9.82 33,13.87 1.28,0.51 2.74,-0.14 3.23,-1.42 0.51,-1.29 -0.13,-2.74 -1.42,-3.24 -10.36,-4.02 -21.08,-8.52 -32.76,-13.76 l -13.3,-5.96 c -0.7,-0.32 -1.5,-0.28 -2.18,0.06 l -121.96,63.87 -287.552,-287.55 c -0.488,-0.49 -1.129,-0.73 -1.765,-0.73 z M 2358.38,3337.05 c -0.39,0 -0.79,0.09 -1.16,0.28 -1.22,0.65 -1.7,2.15 -1.06,3.38 l 60.5,115.53 -48.26,48.25 c -0.97,0.98 -0.97,2.56 0,3.54 0.98,0.98 2.56,0.98 3.54,0 l 49.55,-49.56 c 0.78,-0.77 0.96,-1.95 0.45,-2.93 l -61.34,-117.15 c -0.45,-0.85 -1.32,-1.34 -2.22,-1.34 z m -1341.85,-57.14 c -0.29,0 -0.59,0.05 -0.88,0.16 -1.29,0.49 -1.94,1.93 -1.46,3.22 4.84,12.82 9.93,25.06 15.55,37.4 0.57,1.26 2.06,1.8 3.31,1.24 1.26,-0.57 1.81,-2.05 1.24,-3.31 -5.58,-12.24 -10.62,-24.37 -15.42,-37.09 -0.37,-1.01 -1.33,-1.62 -2.34,-1.62 z m -0.15,-519.65 c -1.01,0 -1.97,0.62 -2.34,1.62 l -4.74,12.55 -132.058,41.28 c -1.043,0.32 -1.754,1.29 -1.754,2.38 v 408.5 c 0,1.09 0.711,2.06 1.754,2.39 l 126.278,39.47 c 1.35,0.42 2.73,-0.33 3.14,-1.64 0.41,-1.32 -0.33,-2.72 -1.65,-3.13 l -124.522,-38.93 v -404.82 l 131.472,-41.09 c 0.73,-0.23 1.32,-0.79 1.59,-1.5 l 5.17,-13.7 c 0.48,-1.29 -0.17,-2.73 -1.46,-3.22 -0.29,-0.11 -0.59,-0.16 -0.88,-0.16 z m 680.13,-107.31 c -203.64,0 -369.32,165.73 -369.32,369.45 0,1.38 1.12,2.5 2.5,2.5 1.38,0 2.5,-1.12 2.5,-2.5 0,-200.96 163.44,-364.45 364.32,-364.45 200.89,0 364.32,163.49 364.32,364.45 0,200.89 -163.43,364.33 -364.32,364.33 -1.38,0 -2.5,1.11 -2.5,2.5 0,1.38 1.12,2.5 2.5,2.5 203.65,0 369.32,-165.68 369.32,-369.33 0,-203.72 -165.67,-369.45 -369.32,-369.45 z m -264.6,-311.39 c -0.3,0 -0.6,0.05 -0.9,0.17 -10.16,3.93 -20.95,8.47 -33.01,13.88 -1.26,0.56 -1.82,2.04 -1.26,3.3 0.56,1.25 2.04,1.84 3.3,1.26 11.98,-5.37 22.7,-9.87 32.78,-13.78 1.29,-0.5 1.93,-1.94 1.42,-3.23 -0.38,-0.99 -1.32,-1.6 -2.33,-1.6 z m -169.75,-44.92 c -0.64,0 -1.28,0.24 -1.77,0.73 l -288.847,288.84 c -0.773,0.77 -0.953,1.96 -0.449,2.93 l 64.716,123.59 c 0.65,1.21 2.17,1.67 3.38,1.06 1.22,-0.65 1.69,-2.16 1.05,-3.38 l -63.861,-121.97 287.551,-287.53 c 0.97,-0.98 0.97,-2.56 0,-3.54 -0.49,-0.49 -1.13,-0.73 -1.77,-0.73 z m 868.73,0 c -0.64,0 -1.28,0.24 -1.77,0.73 -0.98,0.98 -0.98,2.56 0,3.54 l 287.54,287.53 -63.87,121.98 c -0.35,0.68 -0.37,1.48 -0.07,2.18 l 5.93,13.28 c 6.07,13.58 11.19,25.92 15.64,37.75 l 5.16,13.69 c 0.27,0.72 0.86,1.28 1.59,1.51 l 131.51,41.1 v 404.82 l -129.67,40.54 c -1.32,0.41 -2.05,1.81 -1.64,3.13 0.41,1.32 1.8,2.06 3.13,1.64 l 131.42,-41.08 c 1.05,-0.33 1.76,-1.3 1.76,-2.39 v -408.5 c 0,-1.09 -0.71,-2.06 -1.76,-2.38 l -132.09,-41.29 -4.73,-12.55 c -4.49,-11.92 -9.64,-24.36 -15.75,-38.03 l -5.43,-12.17 64.15,-122.53 c 0.51,-0.97 0.33,-2.16 -0.45,-2.93 l -288.83,-288.84 c -0.49,-0.49 -1.13,-0.73 -1.77,-0.73 z m -230.12,-95.32 h -408.49 c -1.1,0 -2.07,0.71 -2.39,1.76 l -39.47,126.22 c -0.41,1.32 0.33,2.72 1.65,3.13 1.33,0.4 2.72,-0.32 3.13,-1.64 l 38.91,-124.47 h 404.83 l 41.07,131.4 c 0.23,0.73 0.79,1.32 1.51,1.59 l 13.68,5.16 c 11.56,4.36 23.92,9.49 37.77,15.7 l 13.32,5.96 c 1.24,0.58 2.74,0 3.3,-1.26 0.57,-1.26 0,-2.74 -1.26,-3.31 l -13.32,-5.95 c -13.94,-6.25 -26.39,-11.43 -38.05,-15.81 l -12.54,-4.74 -41.26,-131.98 c -0.33,-1.05 -1.29,-1.76 -2.39,-1.76" /><path
         id="path172"
         style="fill:#f47171;fill-opacity:1;fill-rule:nonzero;stroke:none"
         d="m 3133.45,2940.55 c 31.28,-39.82 60.51,-79.96 89.1,-121.3 28.34,-41.43 55.82,-83.53 81.6,-127.54 6.48,-10.92 12.69,-22.28 18.98,-33.45 10.82,-19.76 14.31,-38.6 15.63,-54.89 2.29,-32.78 -2.4,-60.21 -8.35,-86.76 -12.63,-52.69 -31.78,-99.76 -56.2,-146.1 l -51.47,19.84 c 9.68,46.5 18.51,94.86 22.03,139.85 1.5,22.26 1.6,44.61 -1.94,61.07 -1.79,8.16 -4.34,13.86 -6.1,15.53 -6.64,9.92 -13.05,19.85 -19.98,29.73 -27.07,39.66 -55.75,79.09 -84.69,118.38 l -86.9,117.78 88.29,67.86" /><path
         id="path174"
         style="fill:#f47171;fill-opacity:1;fill-rule:nonzero;stroke:none"
         d="m 3219.1,2396.34 -26.58,-47.6 92.82,-13.76 c 0,0 9.55,40.44 -13.39,67.64 l -52.85,-6.28" /><path
         id="path176"
         style="fill:#f47171;fill-opacity:1;fill-rule:nonzero;stroke:none"
         d="m 3178.51,2285.45 77.25,-7.77 29.58,57.3 -92.82,13.76 -14.01,-63.29" /><path
         id="path178"
         style="fill:#267fc7;fill-opacity:1;fill-rule:nonzero;stroke:none"
         d="m 3430.01,2001.42 27.56,146.92 c 6.65,35.44 41,58.96 76.35,52.33 l 231.65,-43.45 c -31.73,106.28 -120.36,191.46 -236.92,213.32 -83.53,15.67 -165.49,-4.2 -230.32,-48.92 l -1051.2,622.23 c 12.87,154.54 -93.03,296.8 -248.77,326.01 -116.55,21.85 -230.03,-25.43 -298.11,-112.99 l 231.65,-43.44 c 35.35,-6.63 58.85,-40.99 52.2,-76.43 l -27.55,-146.93 c -6.65,-35.44 -41.01,-58.94 -76.34,-52.31 l -231.66,43.44 c 31.73,-106.28 120.36,-191.46 236.91,-213.32 84.6,-15.87 167.53,4.74 232.74,50.66 l 1049.09,-620.98 c -14.49,-155.68 91.73,-299.6 248.47,-328.99 116.55,-21.87 230.02,25.42 298.11,112.98 l -231.65,43.44 c -35.34,6.63 -58.85,40.99 -52.21,76.43" /><path
         id="path180"
         style="fill:#1869aa;fill-opacity:1;fill-rule:nonzero;stroke:none"
         d="m 3100.17,2210.6 -852.35,504.52 c -15.49,9.16 -20.61,29.14 -11.44,44.62 l 34.76,58.74 c 9.17,15.48 29.15,20.6 44.63,11.44 l 852.35,-504.52 c 15.47,-9.17 20.6,-29.15 11.44,-44.63 l -34.77,-58.74 c -9.16,-15.48 -29.15,-20.59 -44.62,-11.43" /><path
         id="path182"
         style="fill:#1a2847;fill-opacity:1;fill-rule:nonzero;stroke:none"
         d="m 2777.35,3251.29 c -0.9,-5.86 -4.75,-10.12 -8.58,-9.52 -3.83,0.61 -6.18,5.84 -5.27,11.69 0.91,5.85 4.76,10.11 8.59,9.51 3.83,-0.59 6.18,-5.83 5.26,-11.68" /><path
         id="path184"
         style="fill:#f14454;fill-opacity:1;fill-rule:nonzero;stroke:none"
         d="m 2773.13,3241.09 c 0,0 -18.6,-31.69 -35.81,-45.69 8.85,-11.29 27.15,-9.63 27.15,-9.63 l 8.66,55.32" /><path
         id="path186"
         style="fill:#1a2847;fill-opacity:1;fill-rule:nonzero;stroke:none"
         d="m 2803.72,3280.43 c -0.89,0 -1.77,0.34 -2.45,1.01 -11.06,10.93 -23.59,8.34 -23.71,8.32 -1.94,-0.44 -3.74,0.78 -4.14,2.66 -0.41,1.88 0.78,3.73 2.65,4.13 0.69,0.15 16.43,3.36 30.1,-10.16 1.37,-1.35 1.38,-3.55 0.02,-4.92 -0.67,-0.69 -1.57,-1.04 -2.47,-1.04" /><path
         id="path188"
         style="fill:#f47171;fill-opacity:1;fill-rule:nonzero;stroke:none"
         d="m 2972.71,3186.79 c -10.54,-53.74 -21.05,-152.21 16.55,-188.08 0,0 -14.69,-54.51 -114.55,-54.51 -109.82,0 -52.48,54.51 -52.48,54.51 59.93,14.31 58.39,58.77 47.95,100.53 l 102.53,87.55" /><path
         id="path190"
         style="fill:#7aaae0;fill-opacity:1;fill-rule:nonzero;stroke:none"
         d="m 3040.42,2958.36 c -1.24,1.7 -2.11,3.66 -2.68,5.81 -8.4,31.84 -43.75,56.79 -89.56,58.01 -48.33,1.28 -102.73,-4.52 -135.01,-31.18 -14.15,-11.68 1.58,-28.81 1.58,-28.81 l 225.67,-3.83" /><path
         id="path192"
         style="fill:#267fc7;fill-opacity:1;fill-rule:nonzero;stroke:none"
         d="m 3414.6,969.051 c -8.02,-2.082 -20.98,-6.469 -24.3,-12.102 -0.78,-1.32 -0.95,-2.609 -0.53,-3.949 0.97,-3.109 2.49,-3.289 2.97,-3.34 4.99,-0.648 15.59,10.18 21.86,19.391 z m -21.49,-22.903 c -0.26,0 -0.5,0.024 -0.76,0.051 -1.94,0.223 -4.54,1.403 -5.9,5.77 -0.73,2.293 -0.43,4.562 0.85,6.742 5.59,9.488 29.68,14.5 30.7,14.711 0.69,0.098 1.37,-0.141 1.77,-0.692 0.4,-0.558 0.43,-1.3 0.08,-1.902 -3.79,-6.488 -17.46,-24.68 -26.74,-24.68" /><path
         id="path194"
         style="fill:#267fc7;fill-opacity:1;fill-rule:nonzero;stroke:none"
         d="m 3392.97,982.34 c -0.42,0 -0.84,-0.031 -1.24,-0.078 -1.9,-0.231 -3.33,-1.032 -4.38,-2.43 -1.36,-1.82 -0.76,-2.684 -0.49,-3.051 2.85,-4.011 18.09,-5.691 27.48,-4.199 -4.77,3.457 -14.41,9.758 -21.37,9.758 z m 13.43,-13.738 c -9.06,0 -19.26,1.769 -22.39,6.168 -0.87,1.23 -1.96,3.789 0.55,7.152 1.63,2.168 3.9,3.437 6.75,3.797 10.98,1.25 27.45,-12.078 28.14,-12.66 0.49,-0.411 0.73,-1.047 0.61,-1.668 -0.12,-0.641 -0.58,-1.141 -1.18,-1.34 -2.91,-0.93 -7.52,-1.449 -12.48,-1.449" /><path
         id="path196"
         style="fill:#267fc7;fill-opacity:1;fill-rule:nonzero;stroke:none"
         d="m 2655.14,717.531 c -1.22,0 -2.36,-0.133 -3.36,-0.402 -1.61,-0.43 -2.73,-1.231 -3.41,-2.43 -1.24,-2.168 -0.79,-3.23 -0.34,-3.847 3.41,-4.743 22,-4.852 35.64,-2.93 -6.8,3.5 -19.95,9.609 -28.53,9.609 z m 11.65,-14.25 c -9.43,0 -18.54,1.297 -21.58,5.539 -1.08,1.481 -1.92,4 0.13,7.602 1.15,2.019 3.01,3.387 5.52,4.066 12.27,3.383 37.9,-11.308 38.99,-11.929 0.63,-0.36 0.97,-1.079 0.85,-1.789 -0.11,-0.711 -0.66,-1.282 -1.37,-1.43 -4.69,-0.918 -13.75,-2.059 -22.54,-2.059" /><path
         id="path198"
         style="fill:#267fc7;fill-opacity:1;fill-rule:nonzero;stroke:none"
         d="m 2671.05,735.09 c -0.34,0 -0.69,-0.02 -1.04,-0.051 -3.13,-0.32 -3.33,-1.551 -3.39,-1.949 -0.81,-4.988 11.13,-17.469 20.18,-22.91 -0.94,5.781 -3.57,17.621 -9.7,22.64 -1.85,1.532 -3.84,2.27 -6.05,2.27 z m 17.93,-29.781 c -0.24,0 -0.48,0.05 -0.71,0.152 -8.87,3.988 -26.43,19.867 -25.09,28.18 0.32,1.949 1.7,4.379 6.48,4.859 3.54,0.352 6.8,-0.648 9.66,-2.988 9.34,-7.672 11.31,-27.453 11.39,-28.293 0.06,-0.617 -0.21,-1.219 -0.71,-1.578 -0.3,-0.219 -0.65,-0.332 -1.02,-0.332" /><path
         id="path200"
         style="fill:#f47171;fill-opacity:1;fill-rule:nonzero;stroke:none"
         d="m 2769.77,707.051 h -73.47 l -7.32,170.129 h 73.47 l 7.32,-170.129" /><path
         id="path202"
         style="fill:#f47171;fill-opacity:1;fill-rule:nonzero;stroke:none"
         d="m 3484.12,1023.94 -59.57,-42.991 -140.61,108.321 59.57,42.99 140.61,-108.32" /><path
         id="path204"
         style="fill:#1b365b;fill-opacity:1;fill-rule:nonzero;stroke:none"
         d="m 3416.02,981.551 57.14,59.549 c 2.08,2.16 5.38,2.6 7.95,1.04 l 57.16,-34.75 c 5.93,-3.61 6.87,-11.89 1.98,-16.812 -20.31,-20.437 -31.23,-29.367 -56.35,-55.558 -15.47,-16.098 -57.55,-72.711 -78.9,-94.961 -20.89,-21.758 -46.14,-4.028 -39.39,6.98 30.26,49.422 44.6,98.43 45.41,122.793 0.13,4.387 1.95,8.559 5,11.719" /><path
         id="path206"
         style="fill:#1b365b;fill-opacity:1;fill-rule:nonzero;stroke:none"
         d="m 2696.79,715.559 h 80.22 c 3.01,0 5.61,-2.079 6.26,-5.008 l 14.5,-65.301 c 1.52,-6.77 -3.63,-13.191 -10.56,-13.07 -28.94,0.492 -70.75,2.191 -107.13,2.191 -42.53,0 -79.27,-2.332 -129.14,-2.332 -30.16,0 -38.54,30.492 -25.91,33.262 57.47,12.57 104.39,13.918 154.06,44.539 5.39,3.332 11.36,5.719 17.7,5.719" /><path
         id="path208"
         style="fill:#003a6a;fill-opacity:1;fill-rule:nonzero;stroke:none"
         d="m 3030.63,2843.65 c 10.3,-18.5 21.29,-36.4 32.19,-53.1 18.81,-28.9 37,-53.9 50.11,-71.1 11.7,-15.5 19.2,-24.6 19.2,-24.6 l 148,100.9 c 0,0 -89.6,175.2 -159.3,186.4 -71.41,11.3 -136.7,-55.5 -90.2,-138.5" /><path
         id="path210"
         style="fill:#00233f;fill-opacity:1;fill-rule:nonzero;stroke:none"
         d="m 3062.82,2790.55 c 18.81,-28.9 37,-53.9 50.11,-71.1 -1.5,34.4 -8.6,90.1 -35.3,132.4 -9.81,-9.6 -13.7,-34.4 -14.81,-61.3" /><path
         id="path212"
         style="fill:#003a6a;fill-opacity:1;fill-rule:nonzero;stroke:none"
         d="m 2673.13,2738.85 c 0,-25 0.6,-52.5 2,-82.8 3.6,-82.4 12.59,-185.1 29.8,-312.7 h 392.89 c 2.71,60.3 -35.19,354.6 23.01,638.8 0,0 -67.4,13.5 -131.6,16.6 -50.21,2.4 -122.9,4 -167,0 -58.21,-5.4 -113,-20.4 -113,-20.4 0,0 -36.2,-40.9 -36.1,-239.5" /><path
         id="path214"
         style="fill:#00233f;fill-opacity:1;fill-rule:nonzero;stroke:none"
         d="m 2673.13,2738.85 c 0,-25 0.6,-52.5 2,-82.8 46.1,45 49.2,136.9 49.2,136.9 l -51.2,-54.1" /><path
         id="path216"
         style="fill:#f47171;fill-opacity:1;fill-rule:nonzero;stroke:none"
         d="m 2754.95,2852.91 c -8.9,-14.95 -16.52,-25.4 -24.95,-36.39 -8.26,-10.76 -16.62,-21.03 -25.14,-31.13 -16.9,-20.27 -34.93,-39.26 -53.4,-57.95 -37.42,-36.93 -77.28,-71.77 -124.42,-101.65 -11.92,-7.35 -24.33,-14.37 -37.57,-20.78 l -5.03,-2.37 -2.52,-1.17 c -0.73,-0.36 -1.68,-0.79 -3.12,-1.35 -5.06,-2 -10.4,-4.14 -15.18,-5.24 l -7.37,-1.88 -6.97,-1.21 c -4.75,-0.89 -9.07,-1.16 -13.47,-1.47 -34.59,-1.63 -62.22,4.84 -88.81,12.51 -52.75,16.02 -98.65,38.91 -143.45,67.11 l 23.69,49.82 c 45.96,-13.03 94.01,-25.47 138.63,-31.58 22.02,-2.81 44.42,-4.14 59.63,-0.87 1.79,0.44 3.69,0.74 5.02,1.27 l 2.2,0.63 1.61,0.76 c 1.3,0.38 1.6,1 2.33,1.3 l 6.08,3.43 c 8.87,5.16 17.81,11.1 26.69,17.51 35.71,25.92 70.09,58.61 102.47,92.84 16.33,17.08 31.98,34.95 47.27,52.79 7.59,8.96 14.99,18.03 21.94,27.05 6.72,8.81 14.01,18.42 18.06,24.8 l 95.78,-56.78" /><path
         id="path218"
         style="fill:#f47171;fill-opacity:1;fill-rule:nonzero;stroke:none"
         d="m 2238.05,2706.42 -48.88,58.15 -33.13,-84.84 c 0,0 42.09,-19.68 74.86,-8.44 l 7.15,35.13" /><path
         id="path220"
         style="fill:#f47171;fill-opacity:1;fill-rule:nonzero;stroke:none"
         d="m 2117.59,2777.13 -13.56,-67.74 52.01,-29.66 33.13,84.84 -71.58,12.56" /><path
         id="path222"
         style="fill:#003a6a;fill-opacity:1;fill-rule:nonzero;stroke:none"
         d="m 2813.95,2892.69 c -8.75,-69.68 -167.56,-217.48 -167.56,-217.48 l -142.98,113.37 c 0,0 56.54,85.79 125.19,145.32 103.56,89.8 195.85,42.44 185.35,-41.21" /><path
         id="path224"
         style="fill:#0061b0;fill-opacity:1;fill-rule:nonzero;stroke:none"
         d="m 2689.59,2420.26 c 142.7,0 175.35,161.39 182.79,230.65 -5.44,42.32 -29.36,177.9 -122.72,329.9 -3.29,5.35 -0.28,12.34 5.9,13.48 l 31.33,5.79 c 3.62,0.66 7.32,-0.98 9.27,-4.1 85.94,-137.43 114,-254.06 123.19,-314.05 8.23,0 16.92,0 25.51,0 26.26,57.02 83.95,186.86 79.19,308.58 -0.2,5.42 4.28,9.79 9.69,9.28 l 33.6,-3.23 c 4.42,-0.42 7.93,-3.98 8.12,-8.41 4.91,-117.37 -61.38,-280.04 -86.9,-331.68 8.77,-191.49 115.2,-224.54 115.2,-224.54 0,0 5,-60.84 -6.31,-142.49 -225.47,-36.64 -337.86,-14.28 -402.12,12.32 5.74,48.16 -3.24,81.83 -5.74,118.5" /><path
         id="path226"
         style="fill:#ef5b5c;fill-opacity:1;fill-rule:nonzero;stroke:none"
         d="m 2689,877.129 3.75,-87.68 h 73.5 l -3.76,87.68 H 2689" /><path
         id="path228"
         style="fill:#ef5b5c;fill-opacity:1;fill-rule:nonzero;stroke:none"
         d="m 3343.56,1132.24 -59.6,-43.01 72.51,-55.81 59.59,43.01 -72.5,55.81" /><path
         id="path230"
         style="fill:#f47171;fill-opacity:1;fill-rule:nonzero;stroke:none"
         d="m 2974.56,3233.12 c -15.67,-71.2 -21.23,-113.68 -63.32,-144.9 -63.32,-46.95 -146.9,-0.12 -152.82,74.33 -5.32,67.01 21.2,172.2 96.05,189.79 73.75,17.33 135.76,-48.02 120.09,-119.22" /><path
         id="path232"
         style="fill:#1b365b;fill-opacity:1;fill-rule:nonzero;stroke:none"
         d="m 3038.14,3343.59 c 62.5,-1.69 36.74,-34.59 5.49,-52.66 0,0 36.03,-17.27 17.46,-58.56 -28.2,-62.73 -82.17,-131.61 -137.33,-127.83 -68.55,4.69 -88.07,79.33 -85.6,152.9 -36.15,34.13 -42.22,52.9 -47.89,93.86 -11.26,81.35 40.15,126.04 247.87,-7.71" /><path
         id="path234"
         style="fill:#b0cde5;fill-opacity:1;fill-rule:nonzero;stroke:none"
         d="m 2957.59,3480.59 c 89.19,-22.77 143.03,-113.53 120.25,-202.71 l -322.98,82.46 c 22.78,89.18 113.54,143.02 202.73,120.25" /><path
         id="path236"
         style="fill:#7aaae0;fill-opacity:1;fill-rule:nonzero;stroke:none"
         d="m 3021.43,3277.68 c -1.2,0 -2.42,0.16 -3.63,0.46 -7.8,1.99 -12.52,9.94 -10.52,17.75 9.22,36.13 2.46,74.12 -19.05,106.95 -21.77,33.25 -55.97,57.23 -96.32,67.53 -7.8,1.99 -12.52,9.94 -10.52,17.75 2,7.81 9.93,12.5 17.75,10.53 47.41,-12.1 87.73,-40.45 113.51,-79.81 26.04,-39.78 34.18,-86 22.91,-130.16 -1.69,-6.61 -7.62,-11 -14.13,-11" /><path
         id="path238"
         style="fill:#7aaae0;fill-opacity:1;fill-rule:nonzero;stroke:none"
         d="m 2709.46,3356.02 379.9,-96.99 c 8.22,-2.1 16.66,2.9 18.76,11.12 v 0 c 2.09,8.22 -2.91,16.65 -11.13,18.75 l -379.9,96.99 c -8.21,2.1 -16.65,-2.91 -18.75,-11.12 v 0 c -2.1,-8.22 2.91,-16.65 11.12,-18.75" /><path
         id="path240"
         style="fill:#f47171;fill-opacity:1;fill-rule:nonzero;stroke:none"
         d="m 2875.75,3239.78 c -1.79,-19.02 -11.24,-36.64 -22.27,-48.01 -16.6,-17.09 -32.94,-5.54 -35.05,16.03 -1.9,19.42 4.45,51.72 24.35,60.77 19.6,8.93 35,-7.05 32.97,-28.79" /><path
         id="path242"
         style="fill:#0061b0;fill-opacity:1;fill-rule:nonzero;stroke:none"
         d="m 2844.27,2343.34 c 0,0 -8.48,-522.83 57.22,-727.8 104.08,-324.68 418.26,-587.69 418.26,-587.69 l 112.35,81.09 c 0,0 -261.51,222.17 -309.5,495.65 -43.12,245.7 -24.79,538.07 -24.79,738.75 -91.52,0 -253.54,0 -253.54,0" /><path
         id="path244"
         style="fill:#2955ad;fill-opacity:1;fill-rule:nonzero;stroke:none"
         d="m 2917.63,2253.55 c 13.89,-94.2 -35.2,-356.51 -52.2,-442.41 -17.8,160.61 -21.1,351.11 -21.41,455.11 36.01,24.4 67.21,30.7 73.61,-12.7" /><path
         id="path246"
         style="fill:#7aaae0;fill-opacity:1;fill-rule:nonzero;stroke:none"
         d="m 3271.91,1051.55 c -0.46,-0.33 46.15,-27.5 46.15,-27.5 l 122.75,88.59 -40.92,31.28 -127.98,-92.37" /><path
         id="path248"
         style="fill:#0061b0;fill-opacity:1;fill-rule:nonzero;stroke:none"
         d="m 2704.88,2343.34 c 0,0 -110.65,-469 -118.44,-693.04 -8.74,-251.25 78.94,-843.87 78.94,-843.87 h 124.45 c 0,0 15.33,597.23 20.86,826.08 6.04,249.49 152.47,710.83 152.47,710.83 h -258.28" /><path
         id="path250"
         style="fill:#7aaae0;fill-opacity:1;fill-rule:nonzero;stroke:none"
         d="m 2641.44,856 c -0.58,0 7.02,-51.672 7.02,-51.672 h 151.38 l 4.1,46.113 -162.5,5.559" /></g></g></svg>